<?xml version="1.0" standalone="no"?>
<!DOCTYPE svg PUBLIC "-//W3C//DTD SVG 20010904//EN"
 "http://www.w3.org/TR/2001/REC-SVG-20010904/DTD/svg10.dtd">
<svg version="1.0" xmlns="http://www.w3.org/2000/svg"
 width="260.000000pt" height="260.000000pt" viewBox="0 0 260.000000 260.000000"
 preserveAspectRatio="xMidYMid meet">
<metadata>
Created by potrace 1.14, written by Peter Selinger 2001-2017
</metadata>
<g transform="translate(0.000000,260.000000) scale(0.100000,-0.100000)"
fill="#000000" stroke="none">
<path d="M1105 2444 c-370 -65 -682 -299 -847 -634 -218 -443 -128 -979 222
-1330 454 -453 1186 -453 1640 0 562 562 404 1510 -310 1862 -212 104 -477
142 -705 102z m82 -779 c27 -8 65 -25 84 -38 l34 -23 69 36 c67 34 72 35 180
34 120 0 156 -10 216 -61 18 -15 43 -50 56 -78 23 -49 24 -57 24 -326 0 -308
5 -289 -71 -289 -41 0 -78 14 -91 34 -4 6 -8 120 -8 254 0 269 -4 288 -62 318
-45 23 -151 16 -201 -15 l-37 -23 0 -278 c0 -311 5 -290 -75 -290 -27 0 -51 7
-66 19 -24 19 -24 21 -29 280 l-5 261 -27 27 c-38 38 -143 45 -212 15 l-46
-21 0 -285 0 -286 -26 -6 c-41 -11 -116 2 -131 22 -10 14 -13 85 -13 310 0
281 1 292 21 318 64 82 285 130 416 91z"/>
</g>
</svg>
